<svg xmlns="http://www.w3.org/2000/svg" viewBox="0 0 400 300" width="406" height="306" class="illustration styles_illustrationTablet__1DWOa"><g id="_52_scooter_outline" data-name="#52_scooter_outline"><path d="M204.07,200.11l-.22,8.55,22.12,0a.52.52,0,0,0,.32-.92L216,199.64Z" fill="#f56132"></path><path d="M203.85,209.66a1,1,0,0,1-.72-.3,1,1,0,0,1-.28-.73l.22-8.55a1,1,0,0,1,1-1l11.9-.47a1,1,0,0,1,.65.21l10.32,8.09a1.51,1.51,0,0,1-.93,2.7l-22.12,0Zm1.2-8.59-.17,6.59,19.68,0-8.92-7Z" fill="#093f68"></path><path d="M216.54,135.39s8.87-.82,10.45.34,3.54,3.62,3.44,5-.66,3-2,3a37.49,37.49,0,0,0-4.36-.13c-1.63.17-8.1.25-8.1.25Z" fill="#ffc9b0"></path><path d="M216,144.81a1,1,0,0,1-1-1.06l.55-8.42a1,1,0,0,1,.91-.93c2.17-.2,9.39-.76,11.13.52,1.42,1,4,3.83,3.85,5.84-.17,2.36-1.34,3.9-3,3.93a16.51,16.51,0,0,1-1.72-.09,13.34,13.34,0,0,0-2.54,0c-1.66.18-7.93.26-8.2.26Zm1.49-8.49-.42,6.48c1.9,0,5.75-.11,6.92-.24a15.61,15.61,0,0,1,2.93,0c.54.05,1,.09,1.52.09s.93-1.08,1-2.08c.06-.74-1.43-2.9-3-4.08C225.68,136,221.38,136,217.48,136.32Z" fill="#093f68"></path><path d="M189.8,114.09c-2.76-4.93-3.9-7-8.51-7H168.67a9.62,9.62,0,0,0-9.62,9.62V148H190.9V137.59c5.92,7.09,15,8.47,24.71,9.85l1.81-12.7C204.94,133,194.37,122.39,189.8,114.09Z" fill="#F4511E"></path><path d="M190.9,149H159.05a1,1,0,0,1-1-1V116.67a10.63,10.63,0,0,1,10.62-10.62h12.62c5.16,0,6.54,2.48,9.31,7.41l.08.14h0c4.69,8.52,15.11,18.46,26.89,20.14a1,1,0,0,1,.84,1.13l-1.81,12.7a1,1,0,0,1-.39.66,1,1,0,0,1-.74.19c-8.54-1.22-17.35-2.48-23.57-8.33V148A1,1,0,0,1,190.9,149Zm-30.85-2H189.9v-9.45a1,1,0,0,1,.66-.94,1,1,0,0,1,1.11.29c5.54,6.65,14,8.07,23.09,9.37l1.54-10.74c-12.05-2.17-22.58-12.29-27.37-21l-.07-.13c-2.68-4.78-3.59-6.39-7.57-6.39H168.67a8.63,8.63,0,0,0-8.62,8.62Z" fill="#093f68"></path><path d="M187.6,137.05a1,1,0,0,1-1-1V120.62a1,1,0,0,1,2,0v15.43A1,1,0,0,1,187.6,137.05Z" fill="#093f68"></path><path d="M172.8,105.42h6.91a0,0,0,0,1,0,0v4a2.94,2.94,0,0,1-2.94,2.94h-1a2.94,2.94,0,0,1-2.94-2.94v-4A0,0,0,0,1,172.8,105.42Z" fill="#ffc9b0"></path><path d="M176.78,113.34h-1a4,4,0,0,1-3.94-3.94v-4a1,1,0,0,1,1-1h6.91a1,1,0,0,1,1,1v4A3.94,3.94,0,0,1,176.78,113.34Zm-3-6.92v3a1.94,1.94,0,0,0,1.94,1.94h1a1.93,1.93,0,0,0,1.93-1.94v-3Z" fill="#093f68"></path><path d="M265.43,223.21H159.53v-7.52h-49c-.16-26.93,20.45-41.67,20.45-41.67h65.74s-9.26,5.9-12,19.63c-1.88,9.32,14,18,31.59,14s23-12.42,20.76-28.66-16.37-32.49-16.37-32.49h12.31s7.52,3.31,20.16,25.57a78.67,78.67,0,0,1,5.45,12c5.28,14.46,6.51,29.1,6.8,35.65,0,.38,0,.73,0,1.06C265.44,222.32,265.43,223.21,265.43,223.21Z" fill="#F4511E"></path><path d="M265.43,224.21H159.53a1,1,0,0,1-1-1v-6.52h-48a1,1,0,0,1-1-1c-.16-27.13,20.66-42.34,20.87-42.49a1,1,0,0,1,.58-.18h65.74a1,1,0,0,1,.54,1.84c-.09.06-8.95,5.88-11.59,19-.65,3.23,1.19,5.83,2.85,7.45,4.64,4.54,15.24,8.15,27.54,5.37,16.61-3.76,22.22-11.48,20-27.54-2.19-15.76-16-31.82-16.13-32a1,1,0,0,1,.75-1.65h12.31a1.06,1.06,0,0,1,.4.08c.32.14,8,3.7,20.63,26a80.14,80.14,0,0,1,5.53,12.11,125.29,125.29,0,0,1,6.85,35.94c0,.39,0,.74,0,1.06.05,1.64,0,2.54,0,2.54A1,1,0,0,1,265.43,224.21Zm-104.9-2H264.42c0-.38,0-.87,0-1.45,0-.32,0-.68,0-1.07a123.08,123.08,0,0,0-6.73-35.33,78.47,78.47,0,0,0-5.39-11.8c-11.22-19.76-18.38-24.42-19.54-25.07h-9.94c3.65,4.57,13.36,17.84,15.24,31.35,2.38,17.15-3.86,25.78-21.53,29.77-9.13,2.07-22.22,1.11-29.38-5.89-2.84-2.78-4.05-6.07-3.41-9.27A33.64,33.64,0,0,1,193.81,175H131.27c-2.28,1.76-19.45,15.79-19.78,39.67h48a1,1,0,0,1,1,1Z" fill="#093f68"></path><path d="M265,220.92c0,1.47,0,2.29,0,2.29H229.71c-.05-.75-.08-1.52-.08-2.29a34.46,34.46,0,0,1,29.1-33.87,32.78,32.78,0,0,1,5.17-.4,34.29,34.29,0,0,1,25.62,11.51L265,219.94l-1.1,1Z" fill="#F4511E"></path><path d="M265.08,224.21H229.71a1,1,0,0,1-1-.93c-.06-.81-.09-1.6-.09-2.36a35.53,35.53,0,0,1,29.95-34.86,34.42,34.42,0,0,1,5.32-.41,35.32,35.32,0,0,1,26.36,11.84,1,1,0,0,1-.08,1.42l-24.25,21.55a1.18,1.18,0,0,1,.11.43c0,1.5,0,2.33,0,2.33A1,1,0,0,1,265.08,224.21Zm-34.42-2h33.41c0-.09,0-.19,0-.29h-.16a1,1,0,0,1-.66-1.75l1.1-1,23.75-21.11a33.3,33.3,0,0,0-24.19-10.43,31.76,31.76,0,0,0-5,.39,33.52,33.52,0,0,0-28.26,32.88Q230.63,221.55,230.66,222.21Z" fill="#093f68"></path><circle cx="264.16" cy="220.73" r="22.95" fill="#093f68"></circle><path d="M264.16,244.68a23.95,23.95,0,1,1,23.95-24A24,24,0,0,1,264.16,244.68Zm0-45.9a22,22,0,1,0,21.95,21.95A22,22,0,0,0,264.16,198.78Z" fill="#093f68"></path><circle cx="264.16" cy="220.73" r="9.63" fill="#fff"></circle><path d="M264.16,231.35a10.63,10.63,0,1,1,10.62-10.62A10.64,10.64,0,0,1,264.16,231.35Zm0-19.25a8.63,8.63,0,1,0,8.62,8.63A8.64,8.64,0,0,0,264.16,212.1Z" fill="#093f68"></path><circle cx="142.6" cy="220.73" r="22.95" fill="#093f68"></circle><path d="M142.6,244.68a23.95,23.95,0,1,1,24-24A24,24,0,0,1,142.6,244.68Zm0-45.9a22,22,0,1,0,22,21.95A22,22,0,0,0,142.6,198.78Z" fill="#093f68"></path><circle cx="142.6" cy="220.73" r="9.63" fill="#fff"></circle><path d="M142.6,231.35a10.63,10.63,0,1,1,10.63-10.62A10.64,10.64,0,0,1,142.6,231.35Zm0-19.25a8.63,8.63,0,1,0,8.63,8.63A8.64,8.64,0,0,0,142.6,212.1Z" fill="#093f68"></path><path d="M144.26,160.48h44a8.45,8.45,0,0,1,8.45,8.45V174a0,0,0,0,1,0,0h-66a0,0,0,0,1,0,0v0a13.54,13.54,0,0,1,13.54-13.54Z" fill="#ffbc0e"></path><path d="M196.68,175h-66a1,1,0,0,1-1-1,14.55,14.55,0,0,1,14.54-14.54h44a9.46,9.46,0,0,1,9.45,9.45V174A1,1,0,0,1,196.68,175Zm-64.92-2h63.92v-4.09a7.46,7.46,0,0,0-7.45-7.45h-44A12.55,12.55,0,0,0,131.76,173Z" fill="#093f68"></path><path d="M115.6,215.69h51s14.88-16.63,4.74-26.67c-7.64-7.56-22.8-6.88-35.43-.11S118.31,207.49,115.6,215.69Z" fill="#F4511E"></path><path d="M166.6,216.69h-51a1,1,0,0,1-.81-.42,1,1,0,0,1-.14-.9c2.79-8.45,8-20.49,20.78-27.34,13.66-7.32,29-7.2,36.61.28,10.69,10.59-4.06,27.34-4.7,28A1,1,0,0,1,166.6,216.69Zm-49.61-2h49.15c2-2.35,13.08-16.45,4.49-25-6.94-6.88-21.35-6.85-34.25.06C124.94,195.92,120,206.12,117,214.69Z" fill="#093f68"></path><rect x="220.75" y="137.68" width="12.19" height="8.8" fill="#ffbc0e"></rect><path d="M232.94,147.49H220.75a1,1,0,0,1-1-1v-8.81a1,1,0,0,1,1-1h12.19a1,1,0,0,1,1,1v8.81A1,1,0,0,1,232.94,147.49Zm-11.19-2h10.19v-6.81H221.75Z" fill="#093f68"></path><polygon points="241.97 134.57 232.94 137.68 232.94 146.49 241.97 149.6 241.97 134.57" fill="#ffbc0e"></polygon><path d="M242,150.6a1,1,0,0,1-.33-.06l-9-3.11a1,1,0,0,1-.67-.94v-8.81a1,1,0,0,1,.67-.94l9-3.11a1,1,0,0,1,.91.13,1,1,0,0,1,.42.81v15a1,1,0,0,1-.42.81A1,1,0,0,1,242,150.6Zm-8-4.83,7,2.43V136l-7,2.43Z" fill="#093f68"></path><path d="M217.54,151.55a1,1,0,0,1-.67-1.74l9.3-8.46a1,1,0,1,1,1.35,1.48l-9.31,8.46A1,1,0,0,1,217.54,151.55Z" fill="#093f68"></path><path d="M226.85,138.68a1,1,0,0,1-1-.87l-1.24-9.4-6.06-4a1,1,0,0,1,1.11-1.66L226.1,127a1,1,0,0,1,.44.7l1.3,9.85a1,1,0,0,1-.86,1.13Z" fill="#093f68"></path><rect x="215.96" y="116.77" width="3.16" height="13.54" rx="1.58" fill="#f56132"></rect><path d="M217.54,131.31a2.58,2.58,0,0,1-2.58-2.58V118.35a2.58,2.58,0,0,1,5.16,0v10.38A2.58,2.58,0,0,1,217.54,131.31Zm0-13.54a.58.58,0,0,0-.58.58v10.38a.58.58,0,1,0,1.16,0V118.35A.58.58,0,0,0,217.54,117.77Z" fill="#093f68"></path><path d="M150.8,209.47H130.72a1,1,0,0,1,0-2H150.8a1,1,0,0,1,0,2Z" fill="#093f68"></path><path d="M152.64,204.65H132.56a1,1,0,0,1,0-2h20.08a1,1,0,0,1,0,2Z" fill="#093f68"></path><path d="M154.49,199.84H134.4a1,1,0,0,1,0-2h20.09a1,1,0,0,1,0,2Z" fill="#093f68"></path><path d="M214,137.62s8.84-1.12,10.46,0,3.65,3.5,3.6,4.85-.56,3-1.89,3.06a37.36,37.36,0,0,0-4.36,0c-1.62.23-8.08.52-8.08.52Z" fill="#ffc9b0"></path><path d="M213.74,147.05a1,1,0,0,1-.7-.28,1,1,0,0,1-.3-.75l.27-8.43a1,1,0,0,1,.87-1c2.17-.27,9.36-1.07,11.15.16,1.45,1,4.12,3.69,4,5.71-.1,2.36-1.21,3.94-2.84,4-.57,0-1.16,0-1.72,0a13.67,13.67,0,0,0-2.55,0c-1.65.24-7.91.52-8.18.53Zm1.24-8.54-.21,6.49c1.9-.09,5.75-.29,6.91-.46a14.67,14.67,0,0,1,2.94,0c.53,0,1,0,1.51,0s.9-1.1.94-2.1c0-.75-1.53-2.86-3.17-4C223.16,137.94,218.86,138.08,215,138.51Z" fill="#093f68"></path><path d="M175.47,116.77c4.23,5.48,16.6,18.06,41.45,18.88l.69,12.76s-.73.07-1.11.06c-28.78-.94-44.25-15.32-50.54-23.08" fill="#F4511E"></path><path d="M216.59,149.47h-.12c-28.85-.94-44.51-15.09-51.28-23.45a1,1,0,0,1,.14-1.4,1,1,0,0,1,1.41.15c6.56,8.08,21.74,21.78,49.79,22.7h0L216,136.61c-24.7-1.1-37.08-13.78-41.29-19.23a1,1,0,1,1,1.58-1.22c4.09,5.29,16.23,17.69,40.69,18.49a1,1,0,0,1,1,.94l.69,12.77a1,1,0,0,1-.9,1C217.63,149.41,217,149.47,216.59,149.47Z" fill="#093f68"></path><path d="M189.69,148l-30.64.19v5.48A8.43,8.43,0,0,0,166,162l31.41,5.79a7.43,7.43,0,0,1,6.08,7.3v24.16H218V175.09C218,155.85,189.69,148,189.69,148Z" fill="#093f68"></path><path d="M218,200.25H203.44a1,1,0,0,1-1-1V175.09a6.44,6.44,0,0,0-5.26-6.32L165.77,163a9.42,9.42,0,0,1-7.72-9.27v-5.48a1,1,0,0,1,1-1l30.64-.19a.84.84,0,0,1,.27,0,61.87,61.87,0,0,1,14.43,6.42C214,159.39,219,166.86,219,175.09v24.16A1,1,0,0,1,218,200.25Zm-13.59-2H217V175.09c0-17.61-25.44-25.45-27.48-26.05l-29.5.18v4.49a7.43,7.43,0,0,0,6.08,7.3l31.41,5.8a8.42,8.42,0,0,1,6.9,8.28Z" fill="#093f68"></path><path d="M195.28,76.69s1.94,11,0,20.47-19.06,14.39-26.18,7S157.45,78.46,167.86,72,195.28,76.69,195.28,76.69Z" fill="#ffc9b0"></path><path d="M178.69,108.74a14.07,14.07,0,0,1-10.31-3.89C163.17,99.43,160,89.61,160.9,82c.61-4.86,2.83-8.61,6.44-10.85,10.83-6.73,27.77,4.25,28.49,4.72a1,1,0,0,1,.44.66c.08.46,1.94,11.32,0,20.85-1,4.68-5.39,8.7-11.57,10.49A21.79,21.79,0,0,1,178.69,108.74ZM175.59,71a13.45,13.45,0,0,0-7.2,1.86c-3.88,2.41-5.13,6.44-5.5,9.4-1,7.77,2.76,16.89,6.93,21.22,3,3.15,8.65,4.12,14.32,2.48,5.37-1.56,9.36-5.08,10.16-9,1.66-8.11.39-17.55.07-19.66C192.48,76.14,183.65,71,175.59,71Z" fill="#093f68"></path><ellipse cx="191.39" cy="89.48" rx="1.88" ry="1.87" fill="#093f68"></ellipse><path d="M194.58,91.35s3.36,6.34,2.08,6.67a9.17,9.17,0,0,1-3.11,0" fill="#ffc9b0"></path><path d="M195.26,99.16a12.38,12.38,0,0,1-1.89-.16,1,1,0,1,1,.35-2,9.28,9.28,0,0,0,2.2.1,25.88,25.88,0,0,0-2.23-5.31,1,1,0,0,1,.42-1.35,1,1,0,0,1,1.35.42c1.39,2.62,2.93,6,2.34,7.33a1.36,1.36,0,0,1-.9.77A7,7,0,0,1,195.26,99.16Z" fill="#093f68"></path><path d="M184.44,86.51a2,2,0,0,1-.38-4l8.78-1.7a2,2,0,1,1,.77,3.92l-8.79,1.7A1.58,1.58,0,0,1,184.44,86.51Z" fill="#093f68"></path><path d="M197.55,76s-12.73.77-16.55,6,3.18,13,1.65,17.06-4.07,5.61-10.19,6.12-14.89-4.65-18.47-10.4-8.81-14.71-1.64-27.09C158.92,56.32,173.11,55,181.8,57.28,191.39,59.86,197.17,62.11,197.55,76Z" fill="#70cc40"></path><path d="M171.64,106.19c-6.24,0-14.82-5-18.5-10.91-3.24-5.22-9.29-14.94-1.66-28.11,7-12.11,22.13-13.12,30.58-10.85,10,2.69,16.1,5.35,16.49,19.64a1,1,0,0,1-.94,1c-.12,0-12.31.8-15.81,5.58-1.89,2.59-.61,6.1.63,9.49,1,2.71,1.93,5.27,1.16,7.33-1.67,4.45-4.56,6.22-11,6.76A9.1,9.1,0,0,1,171.64,106.19Zm2.59-48.85c-7.46,0-16.28,2.66-21,10.83-7,12.13-1.61,20.85,1.63,26.06,3.46,5.56,12,10.38,17.54,9.93,5.76-.48,7.94-1.76,9.34-5.47.51-1.37-.31-3.59-1.17-5.94-1.35-3.71-2.89-7.91-.36-11.36,3.45-4.72,13.18-6,16.33-6.32-.59-12.34-5.86-14.37-15-16.82A28.7,28.7,0,0,0,174.23,57.34Z" fill="#093f68"></path><path d="M197.38,68.56S185.94,71,185.3,72.39s.47,3.37,5.1,4.9,16.85.38,16.72-2.17S197.38,68.56,197.38,68.56Z" fill="#70cc40"></path><path d="M196.29,79a22,22,0,0,1-6.21-.72c-3.09-1-5-2.33-5.68-3.88a2.87,2.87,0,0,1,0-2.38c.56-1.24,4.86-2.71,12.78-4.39a1,1,0,0,1,.6,0c3.06,1.28,10.21,4.57,10.35,7.43a2.06,2.06,0,0,1-1,1.79C205.36,78.24,200.58,79,196.29,79Zm-10.11-6.07a.86.86,0,0,0,0,.66c.2.46,1,1.65,4.48,2.79,4.53,1.5,14.73.14,15.43-1.25-.06-.9-4.24-3.52-8.86-5.48C192.5,70.64,187.05,72.14,186.18,72.89Zm0,0Z" fill="#093f68"></path><circle cx="173.9" cy="97.74" r="2.58" fill="#093f68"></circle><path d="M173.9,101.32a3.58,3.58,0,1,1,3.58-3.58A3.58,3.58,0,0,1,173.9,101.32Zm0-5.16a1.58,1.58,0,1,0,1.58,1.58A1.58,1.58,0,0,0,173.9,96.16Z" fill="#093f68"></path><path d="M190.44,101.52A5.21,5.21,0,0,1,185,97.31a1,1,0,0,1,.8-1.17,1,1,0,0,1,1.17.79c.53,2.82,3.5,2.61,3.84,2.57a1,1,0,1,1,.21,2A5.41,5.41,0,0,1,190.44,101.52Z" fill="#093f68"></path></g></svg>